<svg width="17" height="23" viewBox="0 0 17 23" fill="none" xmlns="http://www.w3.org/2000/svg">
<path d="M2.72401 2.76158L2.72408 2.7615C4.13788 1.08802 6.17343 0.5 8.5 0.5C10.8269 0.5 12.8651 1.0882 14.2756 2.76112L14.2757 2.7612C15.7048 4.45542 16.5 7.20216 16.5 11.5C16.5 15.7978 15.7048 18.5446 14.2757 20.2388L14.2756 20.2389C12.8651 21.9118 10.8269 22.5 8.5 22.5C6.17343 22.5 4.13788 21.912 2.72408 20.2385L2.72401 20.2384C1.29233 18.5445 0.5 15.7983 0.5 11.5C0.5 7.20168 1.29233 4.45546 2.72401 2.76158ZM13.8806 3.22005L13.8806 3.22004C12.5705 1.67021 10.7477 1.14286 8.5 1.14286C6.25231 1.14286 4.42955 1.6702 3.11947 3.21911L3.11927 3.21934C1.82886 4.7469 1.04545 7.33313 1.04545 11.5C1.04545 15.6668 1.82883 18.2532 3.11936 19.78L3.11938 19.78C4.42946 21.3298 6.2523 21.8571 8.5 21.8571C10.7477 21.8571 12.5705 21.3298 13.8805 19.7809L13.8807 19.7807C15.1711 18.2531 15.9545 15.6669 15.9545 11.5C15.9545 7.33319 15.1712 4.74685 13.8806 3.22005ZM12.0421 8.18537L9.24695 11.1575L8.9248 11.5L9.24695 11.8425L12.0419 14.8144L11.7362 15.0634L11.7341 15.0651L8.6485 17.5251L8.6473 17.526L8.22727 17.8588V13.5018V12.2402L7.36301 13.1593L5.96473 14.6464L5.54058 14.1952L7.75306 11.8425L8.07523 11.4999L7.753 11.1574L5.53996 8.80489L5.9646 8.35349L7.36301 9.84069L8.22727 10.7598V9.49818V5.14064L8.6473 5.47313L8.64866 5.47421L11.736 7.93569L12.0421 8.18537ZM9.58308 7.00083L8.77273 6.35931V7.39286V9.49818V10.7594L9.63691 9.84077L10.772 8.63409L11.1452 8.23747L10.7182 7.89948L9.58308 7.00083ZM9.6368 13.1599L8.77273 12.242V13.5026V15.6071V16.6407L9.58308 15.9992L10.7182 15.1005L11.1453 14.7624L10.7719 14.3658L9.6368 13.1599Z" fill="#89A5D6" stroke="#89A5D6"/>
</svg>
