<svg width="21" height="20" viewBox="0 0 21 20" fill="none" xmlns="http://www.w3.org/2000/svg">
<path d="M9.66797 3.33594H3.83464C3.39261 3.33594 2.96868 3.51153 2.65612 3.82409C2.34356 4.13665 2.16797 4.56058 2.16797 5.0026V16.6693C2.16797 17.1113 2.34356 17.5352 2.65612 17.8478C2.96868 18.1603 3.39261 18.3359 3.83464 18.3359H15.5013C15.9433 18.3359 16.3673 18.1603 16.6798 17.8478C16.9924 17.5352 17.168 17.1113 17.168 16.6693V10.8359" stroke="#31538F" stroke-width="1.66667" stroke-linecap="round" stroke-linejoin="round"/>
<path d="M15.918 2.08027C16.2495 1.74875 16.6991 1.5625 17.168 1.5625C17.6368 1.5625 18.0864 1.74875 18.418 2.08027C18.7495 2.41179 18.9357 2.86143 18.9357 3.33027C18.9357 3.79911 18.7495 4.24875 18.418 4.58027L10.5013 12.4969L7.16797 13.3303L8.0013 9.99693L15.918 2.08027Z" stroke="#31538F" stroke-width="1.66667" stroke-linecap="round" stroke-linejoin="round"/>
</svg>
