<svg width="18" height="33" viewBox="0 0 18 33" fill="none" xmlns="http://www.w3.org/2000/svg">
<path d="M5.8 26.1875H12.2M5.8 20.375H12.2M1 28.125L1 6.8125C1 5.78479 1.33714 4.79917 1.93726 4.07246C2.53737 3.34576 3.35131 2.9375 4.2 2.9375H5C5.21217 2.9375 5.41566 2.83544 5.56569 2.65376C5.71572 2.47209 5.8 2.22568 5.8 1.96875C5.8 1.71182 5.88429 1.46542 6.03431 1.28374C6.18434 1.10207 6.38783 1 6.6 1H11.4C11.6122 1 11.8157 1.10207 11.9657 1.28374C12.1157 1.46542 12.2 1.71182 12.2 1.96875C12.2 2.22568 12.2843 2.47209 12.4343 2.65376C12.5843 2.83544 12.7878 2.9375 13 2.9375H13.8C14.6487 2.9375 15.4626 3.34576 16.0627 4.07246C16.6629 4.79917 17 5.78479 17 6.8125V28.125C17 29.1527 16.6629 30.1383 16.0627 30.865C15.4626 31.5917 14.6487 32 13.8 32H4.2C3.35131 32 2.53737 31.5917 1.93726 30.865C1.33714 30.1383 1 29.1527 1 28.125Z" stroke="#27AE60" stroke-width="2" stroke-linecap="round" stroke-linejoin="round"/>
</svg>
