<svg width="18" height="16" viewBox="0 0 18 16" fill="none" xmlns="http://www.w3.org/2000/svg">
<path d="M9 16C8.73 16 8.4711 15.9517 8.2233 15.8551C7.9755 15.7585 7.7544 15.6142 7.56 15.4222L1.53 9.44444C1.005 8.92592 0.618602 8.33333 0.370802 7.66666C0.123002 7 -0.000597826 6.3037 2.17391e-06 5.57778C2.17391e-06 4.05185 0.502502 2.74074 1.5075 1.64444C2.5125 0.548148 3.765 0 5.265 0C5.985 0 6.6639 0.140741 7.3017 0.422222C7.9395 0.703703 8.5056 1.0963 9 1.6C9.48 1.0963 10.0389 0.703703 10.6767 0.422222C11.3145 0.140741 11.9931 0 12.7125 0C14.2125 0 15.4689 0.548148 16.4817 1.64444C17.4945 2.74074 18.0006 4.04444 18 5.55555C18 6.28148 17.8725 6.97778 17.6175 7.64444C17.3625 8.31111 16.98 8.9037 16.47 9.42222L10.4175 15.4222C10.2225 15.6148 10.005 15.7594 9.765 15.856C9.525 15.9526 9.27 16.0006 9 16ZM9.9 4.44444C10.05 4.44444 10.1925 4.48148 10.3275 4.55555C10.4625 4.62963 10.5675 4.72592 10.6425 4.84444L12.1725 7.11111H15.9075C16.0125 6.85926 16.0911 6.60355 16.1433 6.344C16.1955 6.08444 16.2219 5.82163 16.2225 5.55555C16.1925 4.53333 15.8475 3.65541 15.1875 2.92178C14.5275 2.18815 13.7025 1.82163 12.7125 1.82222C12.2475 1.82222 11.8011 1.91111 11.3733 2.08889C10.9455 2.26667 10.5744 2.52592 10.26 2.86667L9.6525 3.51111C9.5775 3.6 9.48 3.67052 9.36 3.72267C9.24 3.77481 9.12 3.80059 9 3.8C8.88 3.8 8.76 3.77422 8.64 3.72267C8.52 3.67111 8.415 3.60059 8.325 3.51111L7.7175 2.86667C7.4025 2.52592 7.035 2.25926 6.615 2.06667C6.195 1.87407 5.745 1.77778 5.265 1.77778C4.275 1.77778 3.45 2.152 2.79 2.90044C2.13 3.64889 1.8 4.53392 1.8 5.55555C1.8 5.82222 1.8225 6.08533 1.8675 6.34489C1.9125 6.60444 1.9875 6.85985 2.0925 7.11111H6.3C6.45 7.11111 6.5925 7.14815 6.7275 7.22222C6.8625 7.29629 6.9675 7.39259 7.0425 7.51111L7.83 8.66666L9.045 5.06666C9.105 4.88889 9.2136 4.74074 9.3708 4.62222C9.528 4.5037 9.7044 4.44444 9.9 4.44444ZM10.17 7.33333L8.955 10.9333C8.895 11.1111 8.7825 11.2593 8.6175 11.3778C8.4525 11.4963 8.2725 11.5556 8.0775 11.5556C7.9275 11.5556 7.785 11.5185 7.65 11.4444C7.515 11.3704 7.41 11.2741 7.335 11.1556L5.805 8.88889H3.51L8.8425 14.1556C8.8725 14.1852 8.8989 14.2038 8.9217 14.2116C8.9445 14.2193 8.9706 14.2228 9 14.2222C9.03 14.2222 9.0564 14.2184 9.0792 14.2107C9.102 14.203 9.1281 14.1846 9.1575 14.1556L14.4675 8.88889H11.7C11.55 8.88889 11.4075 8.85185 11.2725 8.77777C11.1375 8.7037 11.025 8.60741 10.935 8.48889L10.17 7.33333Z" fill="#31538F"/>
</svg>
