<svg width="20" height="20" viewBox="0 0 20 20" fill="none" xmlns="http://www.w3.org/2000/svg">
<path d="M11.6654 1.66406H4.9987C4.55667 1.66406 4.13275 1.83966 3.82019 2.15222C3.50763 2.46478 3.33203 2.8887 3.33203 3.33073V16.6641C3.33203 17.1061 3.50763 17.53 3.82019 17.8426C4.13275 18.1551 4.55667 18.3307 4.9987 18.3307H14.9987C15.4407 18.3307 15.8646 18.1551 16.1772 17.8426C16.4898 17.53 16.6654 17.1061 16.6654 16.6641V6.66406L11.6654 1.66406Z" stroke="#31538F" stroke-width="1.66667" stroke-linecap="round" stroke-linejoin="round"/>
<path d="M13.3346 14.1641H6.66797" stroke="#31538F" stroke-width="1.66667" stroke-linecap="round" stroke-linejoin="round"/>
<path d="M13.3346 10.8359H6.66797" stroke="#31538F" stroke-width="1.66667" stroke-linecap="round" stroke-linejoin="round"/>
<path d="M8.33464 7.5H7.5013H6.66797" stroke="#31538F" stroke-width="1.66667" stroke-linecap="round" stroke-linejoin="round"/>
<path d="M11.668 1.66406V6.66406H16.668" stroke="#31538F" stroke-width="1.66667" stroke-linecap="round" stroke-linejoin="round"/>
</svg>
