<svg width="29" height="29" viewBox="0 0 29 29" fill="none" xmlns="http://www.w3.org/2000/svg">
<g clip-path="url(#clip0_35497_133431)">
<path d="M20.5338 14.0771C21.5113 14.7887 22 15.9665 22 17.6103C22 20.076 19.1569 24.2907 16.5932 24.2907C14.0294 24.2907 12.5426 24.2907 10.0333 24.2907C7.52391 24.2907 5.99977 21.9522 5.99977 20.076C5.99977 17.434 5.99977 14.792 5.99977 12.1501C5.99977 11.1438 6.76727 10.3281 7.71408 10.3281H7.71928C8.66318 10.3281 9.42839 11.1414 9.42839 12.1445" stroke="#636363" stroke-width="2" stroke-linecap="round"/>
<path d="M19.7227 15.4563V4.25797C19.7227 3.25255 18.9558 2.4375 18.0098 2.4375C18.0082 2.4375 18.0066 2.4375 18.005 2.43751C17.0556 2.4403 16.2873 3.25904 16.2873 4.26805V12.5089" stroke="#636363" stroke-width="2" stroke-linecap="round"/>
<path d="M16.2891 12.1512V1.83133C16.2891 0.819916 15.5176 0 14.5659 0C13.6142 0 12.8428 0.819916 12.8428 1.83133V12.1512" stroke="#636363" stroke-width="2" stroke-linecap="round" stroke-linejoin="round"/>
<path d="M12.8555 11.977V10.3297C12.8555 9.32355 12.088 8.50781 11.1412 8.50781C10.1943 8.50781 9.42685 9.32355 9.42685 10.3297V12.1517" stroke="#636363" stroke-width="2" stroke-linecap="round" stroke-linejoin="round"/>
</g>
<defs>
<clipPath id="clip0_35497_133431">
<rect width="29" height="29" fill="white"/>
</clipPath>
</defs>
</svg>
