<svg width="320" height="320" viewBox="0 0 320 320" fill="none" xmlns="http://www.w3.org/2000/svg">
<path d="M90.56 101.196C41.344 129.919 38.4 226.898 108.403 225.042C139.706 224.21 148.851 191.385 177.101 179.865C203.622 169.042 226.49 190.745 253.261 166.169C284.806 137.241 289.338 66.4887 242.451 61.7591C222.035 59.6983 214.163 80.0823 196.326 84.5943C160.166 93.7463 127.13 79.8647 90.56 101.196Z" fill="#EAF5F9"/>
<path d="M160 273.638C228.533 273.638 284.09 270.394 284.09 266.393C284.09 262.392 228.533 259.148 160 259.148C91.4672 259.148 35.9104 262.392 35.9104 266.393C35.9104 270.394 91.4672 273.638 160 273.638Z" fill="#F5F5F5"/>
<path d="M31.2704 96.3594L177.171 117.364L196.749 137.121L31.2704 96.3594Z" fill="#2396D2"/>
<path opacity="0.6" d="M31.2704 96.3594L177.171 117.364L196.749 137.121L31.2704 96.3594Z" fill="white"/>
<path d="M31.2704 96.3594L177.171 117.364L170.4 145.934L31.2704 96.3594Z" fill="#2396D2"/>
<path opacity="0.2" d="M31.2704 96.3594L177.171 117.364L170.4 145.934L31.2704 96.3594Z" fill="black"/>
<path d="M167.405 63.283L175.872 102.963C176.092 103.999 175.892 105.08 175.317 105.969C174.741 106.858 173.836 107.483 172.8 107.705L97.2287 123.833C96.1927 124.052 95.1124 123.851 94.2238 123.276C93.3351 122.7 92.7105 121.796 92.4863 120.761L84.0127 81.0814C83.7944 80.0445 83.9957 78.9633 84.5727 78.0745C85.1496 77.1857 86.0552 76.5617 87.0911 76.339L162.662 60.211C163.699 59.9927 164.78 60.194 165.669 60.7709C166.558 61.3479 167.182 62.2534 167.405 63.2894V63.283Z" fill="#2396D2"/>
<path opacity="0.4" d="M167.405 63.283L175.872 102.963C176.092 103.999 175.892 105.08 175.317 105.969C174.741 106.858 173.836 107.483 172.8 107.705L97.2287 123.833C96.1927 124.052 95.1124 123.851 94.2238 123.276C93.3351 122.7 92.7105 121.796 92.4863 120.761L84.0127 81.0814C83.7944 80.0445 83.9957 78.9633 84.5727 78.0745C85.1496 77.1857 86.0552 76.5617 87.0911 76.339L162.662 60.211C163.699 59.9927 164.78 60.194 165.669 60.7709C166.558 61.3479 167.182 62.2534 167.405 63.2894V63.283Z" fill="black"/>
<path d="M165.542 60.6845L140.294 91.6797C137.953 94.5534 134.7 96.5417 131.075 97.3156C127.45 98.0895 123.669 97.6027 120.358 95.9357L84.6528 77.9518C85.2305 77.1219 86.1023 76.543 87.0912 76.3325L162.662 60.2045C163.649 59.9947 164.678 60.1662 165.542 60.6845Z" fill="#2396D2"/>
<path d="M31.2704 96.3594L151.61 124.961L170.4 145.934L31.2704 96.3594Z" fill="#2396D2"/>
<path opacity="0.6" d="M31.2704 96.3594L151.61 124.961L170.4 145.934L31.2704 96.3594Z" fill="white"/>
<path d="M75.1673 123.924L74.8439 124.477L88.2356 132.321L88.559 131.769L75.1673 123.924Z" fill="#2396D2"/>
<path d="M94.4715 135.229L94.1481 135.781L98.9636 138.602L99.287 138.05L94.4715 135.229Z" fill="#2396D2"/>
<path d="M31.2704 96.3594L151.61 124.961L128.218 153.153L31.2704 96.3594Z" fill="#2396D2"/>
<path d="M192.23 163.364C192.068 163.365 191.908 163.334 191.757 163.275L172.16 155.518C171.846 155.392 171.596 155.147 171.462 154.836C171.329 154.525 171.324 154.175 171.448 153.86C171.572 153.546 171.816 153.294 172.125 153.158C172.435 153.023 172.786 153.015 173.101 153.137L192.704 160.894C192.981 161.004 193.212 161.207 193.355 161.468C193.499 161.729 193.547 162.033 193.491 162.325C193.435 162.618 193.278 162.882 193.048 163.072C192.818 163.262 192.529 163.365 192.23 163.364Z" fill="#2396D2"/>
<path opacity="0.3" d="M192.23 163.364C192.068 163.365 191.908 163.334 191.757 163.275L172.16 155.518C171.846 155.392 171.596 155.147 171.462 154.836C171.329 154.525 171.324 154.175 171.448 153.86C171.572 153.546 171.816 153.294 172.125 153.158C172.435 153.023 172.786 153.015 173.101 153.137L192.704 160.894C192.981 161.004 193.212 161.207 193.355 161.468C193.499 161.729 193.547 162.033 193.491 162.325C193.435 162.618 193.278 162.882 193.048 163.072C192.818 163.262 192.529 163.365 192.23 163.364Z" fill="black"/>
<path d="M191.072 152.129C190.911 152.128 190.753 152.095 190.605 152.033L180.077 147.841C179.919 147.78 179.776 147.688 179.654 147.571C179.532 147.455 179.434 147.315 179.367 147.16C179.299 147.006 179.263 146.839 179.259 146.67C179.256 146.501 179.287 146.334 179.349 146.177C179.411 146.02 179.503 145.877 179.621 145.756C179.739 145.634 179.879 145.538 180.034 145.471C180.189 145.404 180.356 145.369 180.525 145.367C180.693 145.365 180.861 145.397 181.018 145.46L191.546 149.633C191.861 149.757 192.114 150.001 192.25 150.312C192.386 150.623 192.392 150.975 192.269 151.29C192.179 151.535 192.016 151.747 191.802 151.897C191.588 152.047 191.333 152.128 191.072 152.129Z" fill="#2396D2"/>
<path opacity="0.5" d="M191.072 152.129C190.911 152.128 190.753 152.095 190.605 152.033L180.077 147.841C179.919 147.78 179.776 147.688 179.654 147.571C179.532 147.455 179.434 147.315 179.367 147.16C179.299 147.006 179.263 146.839 179.259 146.67C179.256 146.501 179.287 146.334 179.349 146.177C179.411 146.02 179.503 145.877 179.621 145.756C179.739 145.634 179.879 145.538 180.034 145.471C180.189 145.404 180.356 145.369 180.525 145.367C180.693 145.365 180.861 145.397 181.018 145.46L191.546 149.633C191.861 149.757 192.114 150.001 192.25 150.312C192.386 150.623 192.392 150.975 192.269 151.29C192.179 151.535 192.016 151.747 191.802 151.897C191.588 152.047 191.333 152.128 191.072 152.129Z" fill="white"/>
<path d="M169.062 163.2C168.903 163.199 168.744 163.168 168.595 163.111L149.478 155.52C149.321 155.459 149.177 155.368 149.055 155.251C148.933 155.134 148.836 154.995 148.768 154.84C148.701 154.685 148.664 154.519 148.661 154.35C148.658 154.181 148.688 154.013 148.75 153.856C148.812 153.699 148.905 153.556 149.023 153.435C149.14 153.314 149.281 153.217 149.436 153.151C149.591 153.084 149.757 153.049 149.926 153.047C150.095 153.045 150.263 153.077 150.419 153.14L169.536 160.704C169.813 160.814 170.044 161.017 170.187 161.278C170.331 161.54 170.379 161.843 170.323 162.136C170.266 162.429 170.11 162.693 169.88 162.882C169.65 163.072 169.361 163.176 169.062 163.175V163.2Z" fill="#2396D2"/>
<path opacity="0.3" d="M169.062 163.2C168.903 163.199 168.744 163.168 168.595 163.111L149.478 155.52C149.321 155.459 149.177 155.368 149.055 155.251C148.933 155.134 148.836 154.995 148.768 154.84C148.701 154.685 148.664 154.519 148.661 154.35C148.658 154.181 148.688 154.013 148.75 153.856C148.812 153.699 148.905 153.556 149.023 153.435C149.14 153.314 149.281 153.217 149.436 153.151C149.591 153.084 149.757 153.049 149.926 153.047C150.095 153.045 150.263 153.077 150.419 153.14L169.536 160.704C169.813 160.814 170.044 161.017 170.187 161.278C170.331 161.54 170.379 161.843 170.323 162.136C170.266 162.429 170.11 162.693 169.88 162.882C169.65 163.072 169.361 163.176 169.062 163.175V163.2Z" fill="black"/>
<path d="M238.272 105.488C239.968 108.797 241.523 112.112 243.002 115.504C244.48 118.896 245.856 122.333 247.059 125.936L247.495 127.299C247.571 127.543 247.68 127.939 247.744 128.221C247.808 128.503 247.866 128.823 247.898 129.091C248.044 130.124 248.119 131.165 248.122 132.208C248.131 134.132 248.042 136.054 247.853 137.968C247.495 141.674 246.914 145.354 246.112 148.989L242.599 148.599C242.554 144.995 242.522 141.354 242.394 137.802C242.336 136.035 242.234 134.263 242.055 132.599C241.973 131.817 241.845 131.041 241.67 130.275C241.638 130.096 241.587 129.962 241.549 129.815C241.511 129.667 241.472 129.616 241.408 129.424L240.922 128.215C239.584 124.976 238.08 121.712 236.544 118.461L231.898 108.707L238.272 105.488Z" fill="#E4897B"/>
<path d="M242.65 147.469L241.011 150.534L246.246 151.994C246.246 151.994 247.245 149.53 246.054 147.584L242.65 147.469Z" fill="#E4897B"/>
<path d="M239.008 154.951L243.821 155.335L246.246 151.994L241.011 150.535L239.008 154.951Z" fill="#E4897B"/>
<path d="M216.237 83.3694C216.167 83.747 215.904 84.0094 215.661 83.9582C215.418 83.907 215.283 83.5678 215.36 83.1966C215.437 82.8254 215.693 82.5566 215.936 82.6078C216.179 82.659 216.32 82.9982 216.237 83.3694Z" fill="#263238"/>
<path d="M215.942 84.0078C215.266 85.0549 214.45 86.0045 213.517 86.8302C213.735 87.0621 214 87.2439 214.295 87.3633C214.59 87.4826 214.908 87.5365 215.226 87.5214L215.942 84.0078Z" fill="#DE5753"/>
<path d="M218.016 81.5815C217.956 81.58 217.898 81.5547 217.856 81.5111C217.672 81.3008 217.441 81.1367 217.182 81.0322C216.923 80.9277 216.643 80.8857 216.365 80.9095C216.312 80.91 216.26 80.8917 216.22 80.8578C216.179 80.8239 216.151 80.7767 216.142 80.7244C216.133 80.6722 216.142 80.6184 216.169 80.5726C216.196 80.5268 216.238 80.492 216.288 80.4743C216.644 80.4292 217.005 80.4728 217.34 80.6012C217.675 80.7296 217.974 80.9389 218.208 81.2103C218.249 81.2522 218.272 81.3085 218.272 81.3671C218.272 81.4257 218.249 81.482 218.208 81.5239C218.182 81.5473 218.152 81.5647 218.119 81.5747C218.085 81.5846 218.05 81.587 218.016 81.5815Z" fill="#263238"/>
<path d="M226.822 88.5977C226.15 92.0409 225.478 98.3385 227.885 100.636C227.885 100.636 226.944 104.124 220.55 104.124C213.51 104.124 217.197 100.636 217.197 100.636C221.037 99.7209 220.928 96.8729 220.262 94.2041L226.822 88.5977Z" fill="#E4897B"/>
<path d="M228.851 102.804C229.357 101.121 229.914 99.1945 228.762 98.5865C227.482 97.9465 220.525 97.2425 218.125 98.4905C215.725 99.7385 216.41 103.163 216.41 103.163L228.851 102.804Z" fill="#263238"/>
<path d="M243.61 262.4C243.411 262.426 243.209 262.413 243.015 262.36C242.822 262.307 242.641 262.216 242.483 262.093C242.428 262.015 242.398 261.923 242.398 261.827C242.398 261.732 242.428 261.639 242.483 261.562C242.52 261.495 242.57 261.438 242.631 261.392C242.692 261.347 242.761 261.315 242.835 261.299C243.526 261.146 244.819 262.029 244.877 262.067C244.893 262.081 244.906 262.099 244.914 262.119C244.922 262.139 244.925 262.161 244.922 262.182C244.918 262.203 244.908 262.222 244.893 262.237C244.878 262.252 244.859 262.262 244.838 262.266C244.435 262.353 244.023 262.398 243.61 262.4ZM243.021 261.504H242.886C242.843 261.513 242.802 261.531 242.767 261.558C242.732 261.584 242.702 261.618 242.682 261.658C242.579 261.837 242.643 261.914 242.682 261.939C242.88 262.208 243.84 262.208 244.544 262.093C244.085 261.79 243.565 261.593 243.021 261.517V261.504Z" fill="#2396D2"/>
<path d="M244.813 262.288H244.762C244.275 262.019 243.334 261.008 243.43 260.47C243.447 260.387 243.491 260.312 243.557 260.258C243.622 260.205 243.704 260.175 243.789 260.176C243.873 260.166 243.958 260.174 244.04 260.198C244.121 260.223 244.197 260.263 244.262 260.316C244.806 260.764 244.902 262.121 244.902 262.179C244.905 262.199 244.902 262.22 244.892 262.238C244.883 262.256 244.869 262.271 244.851 262.281C244.839 262.286 244.826 262.288 244.813 262.288ZM243.866 260.368H243.84C243.693 260.368 243.68 260.457 243.674 260.483C243.616 260.796 244.218 261.571 244.698 261.936C244.665 261.401 244.474 260.888 244.147 260.464C244.104 260.43 244.055 260.405 244.002 260.391C243.949 260.377 243.894 260.373 243.84 260.38L243.866 260.368Z" fill="#2396D2"/>
<path d="M215.379 262.401C214.778 262.401 214.195 262.318 213.997 262.049C213.947 261.978 213.92 261.893 213.92 261.806C213.92 261.719 213.947 261.634 213.997 261.563C214.036 261.497 214.087 261.44 214.149 261.395C214.211 261.35 214.281 261.318 214.355 261.301C215.13 261.089 216.781 262.024 216.851 262.062C216.87 262.074 216.885 262.092 216.894 262.112C216.903 262.133 216.906 262.155 216.902 262.177C216.899 262.2 216.888 262.22 216.872 262.237C216.856 262.253 216.835 262.263 216.813 262.267C216.34 262.356 215.86 262.401 215.379 262.401ZM214.63 261.493C214.56 261.482 214.489 261.482 214.419 261.493C214.374 261.501 214.332 261.52 214.294 261.546C214.257 261.573 214.225 261.607 214.202 261.646C214.118 261.787 214.15 261.851 214.202 261.889C214.413 262.184 215.603 262.203 216.486 262.081C215.911 261.771 215.281 261.575 214.63 261.505V261.493Z" fill="#2396D2"/>
<path d="M216.8 262.285H216.755C216.186 262.035 215.066 261.005 215.149 260.487C215.149 260.359 215.258 260.205 215.565 260.173C215.679 260.156 215.796 260.164 215.906 260.197C216.017 260.23 216.119 260.288 216.205 260.365C216.806 260.851 216.928 262.119 216.934 262.176C216.937 262.196 216.934 262.215 216.926 262.234C216.918 262.252 216.906 262.267 216.89 262.279C216.876 262.286 216.861 262.29 216.845 262.291C216.83 262.292 216.815 262.29 216.8 262.285ZM215.654 260.365H215.584C215.386 260.365 215.373 260.467 215.366 260.493C215.315 260.813 216.083 261.613 216.646 261.959C216.591 261.421 216.367 260.915 216.006 260.512C215.915 260.433 215.8 260.386 215.68 260.378L215.654 260.365Z" fill="#2396D2"/>
<path d="M221.971 262.172H217.267L216.8 251.285H221.504L221.971 262.172Z" fill="#E4897B"/>
<path d="M250.202 262.172H245.498L243.136 251.285H247.834L250.202 262.172Z" fill="#E4897B"/>
<path d="M245.165 261.629H250.445C250.539 261.63 250.63 261.662 250.704 261.722C250.777 261.781 250.828 261.863 250.848 261.955L251.776 266.134C251.797 266.236 251.795 266.342 251.77 266.442C251.745 266.543 251.697 266.637 251.631 266.717C251.565 266.797 251.481 266.861 251.386 266.904C251.292 266.947 251.189 266.969 251.085 266.967C249.242 266.935 248.346 266.826 246.022 266.826C244.595 266.826 241.651 266.979 239.674 266.979C237.696 266.979 237.446 265.059 238.253 264.848C241.875 264.055 243.238 262.96 244.397 261.923C244.607 261.733 244.881 261.628 245.165 261.629Z" fill="#263238"/>
<path d="M217.299 261.629H222.419C222.514 261.63 222.605 261.662 222.678 261.722C222.751 261.781 222.802 261.863 222.822 261.955L223.75 266.134C223.773 266.235 223.772 266.34 223.748 266.44C223.724 266.541 223.678 266.634 223.612 266.715C223.547 266.795 223.465 266.859 223.371 266.902C223.278 266.946 223.175 266.968 223.072 266.967C221.222 266.935 218.547 266.826 216.218 266.826C213.498 266.826 211.142 266.979 207.949 266.979C206.029 266.979 205.485 265.059 206.291 264.848C209.971 264.042 212.973 263.958 216.154 262C216.492 261.77 216.89 261.641 217.299 261.629Z" fill="#263238"/>
<path d="M215.04 108.892C211.109 108.588 207.197 108.068 203.322 107.337C201.402 106.966 199.443 106.55 197.498 106.025C195.503 105.515 193.545 104.873 191.635 104.105C191.142 103.9 190.643 103.676 190.15 103.465C189.596 103.192 189.061 102.879 188.55 102.531C187.629 101.923 186.835 101.289 186.048 100.662C184.48 99.3818 183.027 98.1018 181.568 96.7898C178.707 94.1402 175.994 91.401 173.376 88.521L175.731 85.8906L185.018 92.5658C186.547 93.6666 188.096 94.7482 189.619 95.7658C190.375 96.2714 191.149 96.745 191.859 97.1482C192.156 97.3176 192.464 97.4673 192.781 97.5962C193.159 97.7434 193.543 97.8906 193.946 98.0314C197.405 99.0965 200.942 99.8883 204.525 100.399C208.179 100.975 211.955 101.449 215.603 101.833L215.04 108.892Z" fill="#E4897B"/>
<path d="M236.301 101.698C240.71 102.709 245.165 115.592 245.165 115.592L236.096 122.101C236.096 122.101 233.536 116.098 231.066 110.85C228.48 105.352 231.795 100.667 236.301 101.698Z" fill="#2396D2"/>
<path opacity="0.4" d="M236.301 101.698C240.71 102.709 245.165 115.592 245.165 115.592L236.096 122.101C236.096 122.101 233.536 116.098 231.066 110.85C228.48 105.352 231.795 100.667 236.301 101.698Z" fill="black"/>
<path d="M233.76 108.738L231.962 112.764C233.824 116.783 235.526 120.764 235.981 121.826C235.917 117.071 235.014 111.17 233.76 108.738Z" fill="#2396D2"/>
<path opacity="0.6" d="M233.76 108.738L231.962 112.764C233.824 116.783 235.526 120.764 235.981 121.826C235.917 117.071 235.014 111.17 233.76 108.738Z" fill="black"/>
<path d="M209.965 101.94C209.965 101.94 204.96 107.591 209.683 142.58H234.829C235.008 138.74 232.582 119.885 236.301 101.697C233.521 101.161 230.71 100.806 227.885 100.634C224.325 100.429 220.757 100.429 217.197 100.634C214.756 100.88 212.338 101.317 209.965 101.94Z" fill="#2396D2"/>
<path opacity="0.4" d="M209.965 101.94C209.965 101.94 204.96 107.591 209.683 142.58H234.829C235.008 138.74 232.582 119.885 236.301 101.697C233.521 101.161 230.71 100.806 227.885 100.634C224.325 100.429 220.757 100.429 217.197 100.634C214.756 100.88 212.338 101.317 209.965 101.94Z" fill="black"/>
<path d="M208.102 108.738C207.936 110.063 207.808 111.631 207.725 113.481C210.208 112.735 212.568 111.627 214.726 110.191L208.102 108.738Z" fill="#2396D2"/>
<path opacity="0.6" d="M208.102 108.738C207.936 110.063 207.808 111.631 207.725 113.481C210.208 112.735 212.568 111.627 214.726 110.191L208.102 108.738Z" fill="black"/>
<path d="M218.88 109.444C215.514 112.426 202.662 112.125 202.662 112.125L202.24 99.6836C206.58 100.302 210.957 100.618 215.341 100.631C222.502 100.484 222.554 106.154 218.88 109.444Z" fill="#2396D2"/>
<path opacity="0.4" d="M218.88 109.444C215.514 112.426 202.662 112.125 202.662 112.125L202.24 99.6836C206.58 100.302 210.957 100.618 215.341 100.631C222.502 100.484 222.554 106.154 218.88 109.444Z" fill="black"/>
<path d="M175.853 85.9141L172.653 82.1445L169.203 85.9845C169.203 85.9845 171.328 89.5557 174.701 88.9925L175.853 85.9141Z" fill="#E4897B"/>
<path d="M168.07 77.75L166.829 82.6716L169.178 85.9612L172.627 82.1468L168.07 77.75Z" fill="#E4897B"/>
<path d="M216.8 251.293L217.043 256.899H221.747L221.504 251.293H216.8Z" fill="#CE6F64"/>
<path d="M247.84 251.293H243.136L244.352 256.899H249.056L247.84 251.293Z" fill="#CE6F64"/>
<path d="M219.629 78.7217C215.411 76.8017 214.08 68.2705 226.214 70.4017C226.214 70.4017 224.384 72.4241 228.096 73.7041C231.808 74.9841 228.704 82.8881 219.629 78.7217Z" fill="#263238"/>
<path d="M228.794 85.122C227.584 89.602 227.11 92.3284 224.314 94.2036C220.128 97.0196 214.925 93.7876 214.758 89.0068C214.611 84.7124 216.614 78.0628 221.446 77.154C222.513 76.9449 223.615 77.0125 224.648 77.3504C225.681 77.6884 226.61 78.2853 227.347 79.0843C228.084 79.8833 228.604 80.8578 228.857 81.9147C229.11 82.9717 229.088 84.0759 228.794 85.122Z" fill="#E4897B"/>
<path d="M226.048 72.641C228.922 74.241 232.813 75.201 232.448 77.4794C231.968 80.2634 234.797 78.5226 234.138 82.6634C233.709 85.3706 228.717 93.5754 225.178 93.1786C219.891 92.5386 220.563 84.5002 220.544 80.2634C220.531 77.761 220.416 69.4858 226.048 72.641Z" fill="#263238"/>
<path d="M219.91 76.2305C218.63 76.5313 216.934 83.9105 221.894 84.5889C227.597 85.3633 219.91 76.2305 219.91 76.2305Z" fill="#263238"/>
<path d="M220.038 78.8506C218.47 78.9914 214.918 77.1034 215.354 74.2618C215.354 74.2426 217.6 77.5834 220.038 78.8506Z" fill="#263238"/>
<path d="M222.368 85.1783C221.887 86.2335 221.07 87.0999 220.045 87.6423C218.694 88.3463 217.933 87.3223 218.24 85.9655C218.515 84.7495 219.552 82.9127 220.941 82.7655C222.33 82.6183 222.925 83.8983 222.368 85.1783Z" fill="#E4897B"/>
<path d="M229.408 79.9998C230.365 79.5847 231.203 78.9389 231.849 78.1202C232.494 77.3015 232.927 76.3355 233.107 75.3086C233.107 75.3086 235.219 81.1774 229.408 79.9998Z" fill="#263238"/>
<path d="M234.746 79.9063C234.3 79.6072 233.788 79.4231 233.254 79.3706C232.72 79.3181 232.181 79.3988 231.686 79.6055C231.686 79.6055 233.658 77.0519 234.746 79.9063Z" fill="#263238"/>
<path d="M218.605 142.58C218.605 142.58 223.942 178.51 226.867 191.969C230.067 206.689 242.163 255.815 242.163 255.815H250.771C250.771 255.815 242.803 207.899 240.973 193.281C238.989 177.441 234.829 142.555 234.829 142.555L218.605 142.58Z" fill="#2396D2"/>
<path opacity="0.5" d="M218.605 142.58C218.605 142.58 223.942 178.51 226.867 191.969C230.067 206.689 242.163 255.815 242.163 255.815H250.771C250.771 255.815 242.803 207.899 240.973 193.281C238.989 177.441 234.829 142.555 234.829 142.555L218.605 142.58Z" fill="white"/>
<path d="M240.787 252.641C240.749 252.641 241.677 255.949 241.677 255.949H251.366L251.187 252.999L240.787 252.641Z" fill="#2396D2"/>
<path opacity="0.1" d="M240.787 252.641C240.749 252.641 241.677 255.949 241.677 255.949H251.366L251.187 252.999L240.787 252.641Z" fill="black"/>
<path d="M221.978 155.382C228.147 156.592 227.494 179.6 226.752 191.434C224.973 183.069 222.368 166.973 220.589 155.549C221.019 155.337 221.509 155.278 221.978 155.382Z" fill="#2396D2"/>
<path opacity="0.4" d="M221.978 155.382C228.147 156.592 227.494 179.6 226.752 191.434C224.973 183.069 222.368 166.973 220.589 155.549C221.019 155.337 221.509 155.278 221.978 155.382Z" fill="white"/>
<path d="M209.683 142.582C209.683 142.582 209.043 177.731 209.549 192.073C210.08 206.985 215.309 255.817 215.309 255.817H223.27C223.27 255.817 223.565 207.856 223.91 193.212C224.301 177.244 226.227 142.582 226.227 142.582H209.683Z" fill="#2396D2"/>
<path opacity="0.5" d="M209.683 142.582C209.683 142.582 209.043 177.731 209.549 192.073C210.08 206.985 215.309 255.817 215.309 255.817H223.27C223.27 255.817 223.565 207.856 223.91 193.212C224.301 177.244 226.227 142.582 226.227 142.582H209.683Z" fill="white"/>
<path d="M216.96 250.093C216.941 250.093 216.922 250.086 216.908 250.073C216.894 250.059 216.885 250.042 216.883 250.022C215.475 236.506 212.167 203.802 211.763 192.07C211.335 180.096 211.725 153.229 211.853 145.28C211.853 145.26 211.861 145.24 211.875 145.226C211.89 145.211 211.909 145.203 211.93 145.203C211.951 145.203 211.971 145.211 211.986 145.225C212.002 145.239 212.011 145.259 212.013 145.28C211.885 153.229 211.495 180.096 211.923 192.064C212.339 203.795 215.648 236.486 217.043 250.003C217.044 250.025 217.036 250.046 217.022 250.062C217.008 250.079 216.988 250.09 216.967 250.093H216.96Z" fill="#2396D2"/>
<path opacity="0.4" d="M216.96 250.093C216.941 250.093 216.922 250.086 216.908 250.073C216.894 250.059 216.885 250.042 216.883 250.022C215.475 236.506 212.167 203.802 211.763 192.07C211.335 180.096 211.725 153.229 211.853 145.28C211.853 145.26 211.861 145.24 211.875 145.226C211.89 145.211 211.909 145.203 211.93 145.203C211.951 145.203 211.971 145.211 211.986 145.225C212.002 145.239 212.011 145.259 212.013 145.28C211.885 153.229 211.495 180.096 211.923 192.064C212.339 203.795 215.648 236.486 217.043 250.003C217.044 250.025 217.036 250.046 217.022 250.062C217.008 250.079 216.988 250.09 216.967 250.093H216.96Z" fill="white"/>
<path d="M213.76 252.641C213.728 252.641 214.214 255.949 214.214 255.949H223.898L224.16 252.999L213.76 252.641Z" fill="#2396D2"/>
<path opacity="0.1" d="M213.76 252.641C213.728 252.641 214.214 255.949 214.214 255.949H223.898L224.16 252.999L213.76 252.641Z" fill="black"/>
</svg>
