<svg width="6" height="20" viewBox="0 0 6 20" fill="none" xmlns="http://www.w3.org/2000/svg">
<path d="M5.5 9.9995C5.5 10.6625 5.23661 11.2984 4.76777 11.7673C4.29893 12.2361 3.66304 12.4995 3 12.4995C2.33696 12.4995 1.70107 12.2361 1.23223 11.7673C0.763392 11.2984 0.5 10.6625 0.5 9.9995C0.5 9.33646 0.763392 8.70057 1.23223 8.23173C1.70107 7.76289 2.33696 7.4995 3 7.4995C3.66304 7.4995 4.29893 7.76289 4.76777 8.23173C5.23661 8.70057 5.5 9.33646 5.5 9.9995ZM4.5 9.9995C4.49987 9.60154 4.34165 9.21994 4.06016 8.93863C3.77867 8.65733 3.39696 8.49937 2.999 8.4995C2.60104 8.49963 2.21944 8.65785 1.93813 8.93934C1.65683 9.22083 1.49887 9.60254 1.499 10.0005C1.49913 10.3985 1.65735 10.7801 1.93884 11.0614C2.22033 11.3427 2.60204 11.5006 3 11.5005C3.39796 11.5004 3.77956 11.3422 4.06087 11.0607C4.34217 10.7792 4.50013 10.3975 4.5 9.9995ZM5.5 2.5625C5.5 3.22554 5.23661 3.86143 4.76777 4.33027C4.29893 4.79911 3.66304 5.0625 3 5.0625C2.33696 5.0625 1.70107 4.79911 1.23223 4.33027C0.763392 3.86143 0.5 3.22554 0.5 2.5625C0.5 1.89946 0.763392 1.26357 1.23223 0.794733C1.70107 0.325892 2.33696 0.0625 3 0.0625C3.66304 0.0625 4.29893 0.325892 4.76777 0.794733C5.23661 1.26357 5.5 1.89946 5.5 2.5625ZM4.5 2.5625C4.49987 2.16454 4.34165 1.78294 4.06016 1.50163C3.77867 1.22033 3.39696 1.06237 2.999 1.0625C2.60104 1.06263 2.21944 1.22085 1.93813 1.50234C1.65683 1.78383 1.49887 2.16554 1.499 2.5635C1.49913 2.96146 1.65735 3.34306 1.93884 3.62437C2.22033 3.90567 2.60204 4.06363 3 4.0635C3.39796 4.06337 3.77956 3.90515 4.06087 3.62366C4.34217 3.34217 4.50013 2.96046 4.5 2.5625ZM5.5 17.4365C5.5 18.0995 5.23661 18.7354 4.76777 19.2043C4.29893 19.6731 3.66304 19.9365 3 19.9365C2.33696 19.9365 1.70107 19.6731 1.23223 19.2043C0.763392 18.7354 0.5 18.0995 0.5 17.4365C0.5 16.7735 0.763392 16.1376 1.23223 15.6687C1.70107 15.1999 2.33696 14.9365 3 14.9365C3.66304 14.9365 4.29893 15.1999 4.76777 15.6687C5.23661 16.1376 5.5 16.7735 5.5 17.4365ZM4.5 17.4365C4.49987 17.0385 4.34165 16.6569 4.06016 16.3756C3.77867 16.0943 3.39696 15.9364 2.999 15.9365C2.60104 15.9366 2.21944 16.0948 1.93813 16.3763C1.65683 16.6578 1.49887 17.0395 1.499 17.4375C1.49913 17.8355 1.65735 18.2171 1.93884 18.4984C2.22033 18.7797 2.60204 18.9376 3 18.9375C3.39796 18.9374 3.77956 18.7792 4.06087 18.4977C4.34217 18.2162 4.50013 17.8345 4.5 17.4365Z" fill="#636363"/>
</svg>
