<svg width="20" height="26" viewBox="0 0 20 26" fill="none" xmlns="http://www.w3.org/2000/svg">
<path d="M3.29261 14.0771C2.25381 14.7887 1.73438 15.9665 1.73438 17.6103C1.73438 20.076 4.75592 24.2907 7.48061 24.2907C10.2053 24.2907 11.7855 24.2907 14.4523 24.2907C17.1192 24.2907 18.739 21.9522 18.739 20.076C18.739 17.434 18.739 14.792 18.739 12.1501C18.739 11.1438 17.9234 10.3281 16.9171 10.3281H16.9116C15.9084 10.3281 15.0952 11.1414 15.0952 12.1445" stroke="#636363" stroke-width="2" stroke-linecap="round"/>
<path d="M4.15234 15.4563V4.25797C4.15234 3.25255 4.96735 2.4375 5.97275 2.4375C5.97445 2.4375 5.97615 2.4375 5.97779 2.43751C6.98678 2.4403 7.8033 3.25904 7.8033 4.26805V12.5089" stroke="#636363" stroke-width="2" stroke-linecap="round"/>
<path d="M7.80469 12.1512V1.83133C7.80469 0.819916 8.62461 0 9.63603 0C10.6474 0 11.4673 0.819916 11.4673 1.83133V12.1512" stroke="#636363" stroke-width="2" stroke-linecap="round" stroke-linejoin="round"/>
<path d="M11.4492 11.977V10.3297C11.4492 9.32355 12.2649 8.50781 13.2711 8.50781C14.2774 8.50781 15.0931 9.32355 15.0931 10.3297V12.1517" stroke="#636363" stroke-width="2" stroke-linecap="round" stroke-linejoin="round"/>
</svg>
