<svg width="30" height="34" viewBox="0 0 30 34" fill="none" xmlns="http://www.w3.org/2000/svg">
<path d="M23.7769 11.4206C24.4307 11.4206 25.0577 11.7152 25.52 12.2396C25.9823 12.764 26.242 13.4753 26.242 14.2169V23.6686C26.9938 24.4376 27.4745 25.5561 27.4745 26.8005C27.4745 29.1214 25.8229 30.995 23.7769 30.995C21.731 30.995 20.0794 29.1214 20.0794 26.8005C20.0794 25.5561 20.5601 24.4376 21.3119 23.6686V14.2169C21.3119 12.6789 22.4212 11.4206 23.7769 11.4206ZM23.7769 12.8187C23.0991 12.8187 22.5444 13.4479 22.5444 14.2169V15.6151H25.0095V14.2169C25.0095 13.4479 24.4548 12.8187 23.7769 12.8187ZM15.1493 8.19078L8.98678 14.4826V25.4023H17.7376L17.6144 26.8005L17.7376 28.1986H6.52176V17.0133H2.82422L15.1493 4.42969L20.5724 9.96646C19.9438 10.5817 19.4631 11.3786 19.155 12.2734L15.1493 8.19078Z" fill="#636363"/>
</svg>
