<svg width="20" height="21" viewBox="0 0 20 21" fill="none" xmlns="http://www.w3.org/2000/svg">
<g clip-path="url(#clip0_36080_24251)">
<path d="M10 13.2422C11.3807 13.2422 12.5 12.1229 12.5 10.7422C12.5 9.36148 11.3807 8.24219 10 8.24219C8.61929 8.24219 7.5 9.36148 7.5 10.7422C7.5 12.1229 8.61929 13.2422 10 13.2422Z" stroke="#89A5D6" stroke-width="1.67" stroke-linecap="round" stroke-linejoin="round"/>
<path d="M16.1654 13.2448C16.0544 13.4961 16.0213 13.775 16.0704 14.0453C16.1194 14.3156 16.2482 14.5651 16.4404 14.7615L16.4904 14.8115C16.6453 14.9662 16.7683 15.1501 16.8521 15.3524C16.936 15.5547 16.9792 15.7716 16.9792 15.9906C16.9792 16.2096 16.936 16.4265 16.8521 16.6289C16.7683 16.8312 16.6453 17.015 16.4904 17.1698C16.3356 17.3248 16.1518 17.4477 15.9494 17.5316C15.7471 17.6154 15.5302 17.6586 15.3112 17.6586C15.0922 17.6586 14.8753 17.6154 14.673 17.5316C14.4706 17.4477 14.2868 17.3248 14.132 17.1698L14.082 17.1198C13.8856 16.9277 13.6362 16.7988 13.3659 16.7498C13.0955 16.7008 12.8167 16.7339 12.5654 16.8448C12.3189 16.9504 12.1087 17.1258 11.9606 17.3494C11.8126 17.573 11.7331 17.835 11.732 18.1031V18.2448C11.732 18.6868 11.5564 19.1107 11.2439 19.4233C10.9313 19.7359 10.5074 19.9115 10.0654 19.9115C9.62334 19.9115 9.19941 19.7359 8.88685 19.4233C8.57429 19.1107 8.3987 18.6868 8.3987 18.2448V18.1698C8.39225 17.894 8.30296 17.6265 8.14246 17.402C7.98195 17.1776 7.75764 17.0067 7.4987 16.9115C7.24735 16.8005 6.96854 16.7674 6.69821 16.8165C6.42788 16.8655 6.17843 16.9943 5.98203 17.1865L5.93203 17.2365C5.77724 17.3914 5.59343 17.5143 5.3911 17.5982C5.18877 17.6821 4.97189 17.7253 4.75286 17.7253C4.53384 17.7253 4.31696 17.6821 4.11463 17.5982C3.9123 17.5143 3.72849 17.3914 3.5737 17.2365C3.41874 17.0817 3.29581 16.8979 3.21193 16.6955C3.12806 16.4932 3.08489 16.2763 3.08489 16.0573C3.08489 15.8383 3.12806 15.6214 3.21193 15.4191C3.29581 15.2167 3.41874 15.0329 3.5737 14.8781L3.6237 14.8281C3.81581 14.6317 3.94469 14.3823 3.9937 14.1119C4.04272 13.8416 4.00963 13.5628 3.8987 13.3115C3.79306 13.065 3.61766 12.8548 3.39409 12.7067C3.17051 12.5587 2.90852 12.4792 2.64036 12.4781H2.4987C2.05667 12.4781 1.63275 12.3025 1.32019 11.99C1.00763 11.6774 0.832031 11.2535 0.832031 10.8115C0.832031 10.3694 1.00763 9.94551 1.32019 9.63295C1.63275 9.32039 2.05667 9.14479 2.4987 9.14479H2.5737C2.84953 9.13834 3.11703 9.04906 3.34145 8.88855C3.56586 8.72804 3.73679 8.50374 3.83203 8.24479C3.94296 7.99344 3.97605 7.71463 3.92703 7.4443C3.87802 7.17397 3.74914 6.92452 3.55703 6.72812L3.50703 6.67812C3.35207 6.52334 3.22914 6.33952 3.14526 6.13719C3.06139 5.93486 3.01822 5.71798 3.01822 5.49896C3.01822 5.27993 3.06139 5.06305 3.14526 4.86072C3.22914 4.65839 3.35207 4.47458 3.50703 4.31979C3.66182 4.16483 3.84563 4.0419 4.04796 3.95803C4.25029 3.87415 4.46717 3.83098 4.6862 3.83098C4.90522 3.83098 5.1221 3.87415 5.32443 3.95803C5.52676 4.0419 5.71058 4.16483 5.86536 4.31979L5.91536 4.36979C6.11176 4.56191 6.36121 4.69078 6.63154 4.7398C6.90187 4.78881 7.18068 4.75572 7.43203 4.64479H7.4987C7.74517 4.53916 7.95538 4.36375 8.10344 4.14018C8.2515 3.9166 8.33096 3.65461 8.33203 3.38646V3.24479C8.33203 2.80276 8.50763 2.37884 8.82019 2.06628C9.13275 1.75372 9.55667 1.57813 9.9987 1.57812C10.4407 1.57813 10.8646 1.75372 11.1772 2.06628C11.4898 2.37884 11.6654 2.80276 11.6654 3.24479V3.31979C11.6664 3.58795 11.7459 3.84994 11.894 4.07351C12.042 4.29709 12.2522 4.47249 12.4987 4.57812C12.75 4.68905 13.0289 4.72214 13.2992 4.67313C13.5695 4.62411 13.819 4.49524 14.0154 4.30312L14.0654 4.25312C14.2202 4.09816 14.404 3.97523 14.6063 3.89136C14.8086 3.80748 15.0255 3.76431 15.2445 3.76431C15.4636 3.76431 15.6804 3.80748 15.8828 3.89136C16.0851 3.97523 16.2689 4.09816 16.4237 4.25312C16.5787 4.40791 16.7016 4.59173 16.7855 4.79406C16.8693 4.99639 16.9125 5.21327 16.9125 5.43229C16.9125 5.65132 16.8693 5.86819 16.7855 6.07053C16.7016 6.27286 16.5787 6.45667 16.4237 6.61146L16.3737 6.66146C16.1816 6.85786 16.0527 7.1073 16.0037 7.37763C15.9547 7.64796 15.9878 7.92678 16.0987 8.17812V8.24479C16.2043 8.49127 16.3797 8.70147 16.6033 8.84953C16.8269 8.9976 17.0889 9.07705 17.357 9.07812H17.4987C17.9407 9.07812 18.3646 9.25372 18.6772 9.56628C18.9898 9.87884 19.1654 10.3028 19.1654 10.7448C19.1654 11.1868 18.9898 11.6107 18.6772 11.9233C18.3646 12.2359 17.9407 12.4115 17.4987 12.4115H17.4237C17.1555 12.4125 16.8936 12.492 16.67 12.64C16.4464 12.7881 16.271 12.9983 16.1654 13.2448V13.2448Z" stroke="#89A5D6" stroke-width="1.67" stroke-linecap="round" stroke-linejoin="round"/>
</g>
<defs>
<clipPath id="clip0_36080_24251">
<rect width="20" height="20" fill="white" transform="translate(0 0.742188)"/>
</clipPath>
</defs>
</svg>
