<svg width="28" height="24" viewBox="0 0 28 24" fill="none" xmlns="http://www.w3.org/2000/svg">
<path d="M14 1.68812V22.3131C14.0001 22.4949 13.9474 22.6727 13.8483 22.8251C13.7492 22.9774 13.6079 23.0976 13.4417 23.1711C13.2755 23.2446 13.0914 23.2683 12.9121 23.2391C12.7327 23.2099 12.5656 23.1292 12.4312 23.0069L5.825 17.0006H2.4375C1.85734 17.0006 1.30094 16.7702 0.890704 16.3599C0.480468 15.9497 0.25 15.3933 0.25 14.8131V9.18812C0.25 7.98062 1.23 7.00062 2.4375 7.00062H5.825L12.4312 0.99437C12.5656 0.871994 12.7327 0.791315 12.9121 0.76215C13.0914 0.732985 13.2755 0.756592 13.4417 0.830099C13.6079 0.903606 13.7492 1.02384 13.8483 1.17618C13.9474 1.32851 14.0001 1.50637 14 1.68812ZM6.81875 8.63187C6.64615 8.78908 6.42097 8.87603 6.1875 8.87562H2.4375C2.35462 8.87562 2.27513 8.90854 2.21653 8.96715C2.15792 9.02575 2.125 9.10524 2.125 9.18812V14.8131C2.125 14.9856 2.265 15.1256 2.4375 15.1256H6.1875C6.42125 15.1256 6.64625 15.2119 6.81875 15.3694L12.125 20.1944V3.80687L6.81875 8.63187ZM19.35 7.27562C19.2642 7.18351 19.1607 7.10963 19.0457 7.05839C18.9307 7.00715 18.8065 6.9796 18.6807 6.97738C18.5548 6.97516 18.4297 6.99832 18.313 7.04547C18.1963 7.09262 18.0902 7.1628 18.0012 7.25182C17.9122 7.34085 17.842 7.44689 17.7948 7.56362C17.7477 7.68036 17.7245 7.80539 17.7268 7.93127C17.729 8.05715 17.7565 8.18129 17.8078 8.29629C17.859 8.41129 17.9329 8.51479 18.025 8.60062L21.425 12.0006L18.025 15.4006C17.9329 15.4864 17.859 15.5899 17.8078 15.7049C17.7565 15.8199 17.729 15.9441 17.7268 16.07C17.7245 16.1958 17.7477 16.3209 17.7948 16.4376C17.842 16.5544 17.9122 16.6604 18.0012 16.7494C18.0902 16.8384 18.1963 16.9086 18.313 16.9558C18.4297 17.0029 18.5548 17.0261 18.6807 17.0239C18.8065 17.0216 18.9307 16.9941 19.0457 16.9428C19.1607 16.8916 19.2642 16.8177 19.35 16.7256L22.75 13.3256L26.15 16.7256C26.2358 16.8177 26.3393 16.8916 26.4543 16.9428C26.5693 16.9941 26.6935 17.0216 26.8193 17.0239C26.9452 17.0261 27.0703 17.0029 27.187 16.9558C27.3037 16.9086 27.4098 16.8384 27.4988 16.7494C27.5878 16.6604 27.658 16.5544 27.7052 16.4376C27.7523 16.3209 27.7755 16.1958 27.7732 16.07C27.771 15.9441 27.7435 15.8199 27.6922 15.7049C27.641 15.5899 27.5671 15.4864 27.475 15.4006L24.075 12.0006L27.475 8.60062C27.6406 8.4229 27.7308 8.18784 27.7265 7.94497C27.7222 7.70209 27.6238 7.47036 27.452 7.29859C27.2803 7.12683 27.0485 7.02844 26.8057 7.02415C26.5628 7.01987 26.3277 7.11002 26.15 7.27562L22.75 10.6756L19.35 7.27562Z" fill="#808080"/>
</svg>
