<svg width="152" height="152" viewBox="0 0 152 152" fill="none" xmlns="http://www.w3.org/2000/svg">
<path d="M110.66 44.1602L117.34 50.8398L61.75 106.43L34.6602 79.3398L41.3398 72.6602L61.75 93.0703L110.66 44.1602ZM76 0C82.9766 0 89.7057 0.890625 96.1875 2.67188C102.669 4.45312 108.73 7.0013 114.371 10.3164C120.012 13.6315 125.133 17.5898 129.734 22.1914C134.336 26.793 138.294 31.9388 141.609 37.6289C144.924 43.319 147.473 49.3802 149.254 55.8125C151.035 62.2448 151.951 68.974 152 76C152 82.9766 151.109 89.7057 149.328 96.1875C147.547 102.669 144.999 108.73 141.684 114.371C138.368 120.012 134.41 125.133 129.809 129.734C125.207 134.336 120.061 138.294 114.371 141.609C108.681 144.924 102.62 147.473 96.1875 149.254C89.7552 151.035 83.026 151.951 76 152C69.0234 152 62.2943 151.109 55.8125 149.328C49.3307 147.547 43.2695 144.999 37.6289 141.684C31.9883 138.368 26.8672 134.41 22.2656 129.809C17.6641 125.207 13.7057 120.061 10.3906 114.371C7.07552 108.681 4.52734 102.645 2.74609 96.2617C0.964844 89.8789 0.0494792 83.125 0 76C0 69.0234 0.890625 62.2943 2.67188 55.8125C4.45312 49.3307 7.0013 43.2695 10.3164 37.6289C13.6315 31.9883 17.5898 26.8672 22.1914 22.2656C26.793 17.6641 31.9388 13.7057 37.6289 10.3906C43.319 7.07552 49.3555 4.52734 55.7383 2.74609C62.1211 0.964844 68.875 0.0494792 76 0ZM76 142.5C82.0859 142.5 87.9492 141.708 93.5898 140.125C99.2305 138.542 104.525 136.315 109.473 133.445C114.421 130.576 118.923 127.087 122.98 122.98C127.038 118.874 130.501 114.396 133.371 109.547C136.241 104.698 138.492 99.4036 140.125 93.6641C141.758 87.9245 142.549 82.0365 142.5 76C142.5 69.9141 141.708 64.0508 140.125 58.4102C138.542 52.7695 136.315 47.4753 133.445 42.5273C130.576 37.5794 127.087 33.0768 122.98 29.0195C118.874 24.9622 114.396 21.4987 109.547 18.6289C104.698 15.7591 99.4036 13.5078 93.6641 11.875C87.9245 10.2422 82.0365 9.45052 76 9.5C69.9141 9.5 64.0508 10.2917 58.4102 11.875C52.7695 13.4583 47.4753 15.6849 42.5273 18.5547C37.5794 21.4245 33.0768 24.9128 29.0195 29.0195C24.9622 33.1263 21.4987 37.6042 18.6289 42.4531C15.7591 47.3021 13.5078 52.5964 11.875 58.3359C10.2422 64.0755 9.45052 69.9635 9.5 76C9.5 82.0859 10.2917 87.9492 11.875 93.5898C13.4583 99.2305 15.6849 104.525 18.5547 109.473C21.4245 114.421 24.9128 118.923 29.0195 122.98C33.1263 127.038 37.6042 130.501 42.4531 133.371C47.3021 136.241 52.5964 138.492 58.3359 140.125C64.0755 141.758 69.9635 142.549 76 142.5Z" fill="black"/>
</svg>
