<svg width="18" height="16" viewBox="0 0 18 16" fill="none" xmlns="http://www.w3.org/2000/svg">
<path d="M10.2239 5.11806L10.22 5.11181C10.1945 5.0716 10.1553 5.03137 10.087 4.9939C10.0237 4.95916 9.96362 4.94444 9.9 4.94444C9.81378 4.94444 9.74289 4.96788 9.67181 5.02147C9.59078 5.08256 9.54493 5.14898 9.51875 5.22655L8.30375 8.82655L7.98252 9.77833L7.41682 8.94824L6.62932 7.79268L6.62454 7.78566L6.61999 7.77848C6.59455 7.73827 6.55527 7.69804 6.48698 7.66057C6.42365 7.62582 6.36362 7.61111 6.3 7.61111H2.0925H1.75955L1.63116 7.3039C1.51223 7.0193 1.42645 6.72793 1.37485 6.4303C1.3249 6.14219 1.3 5.8505 1.3 5.55555C1.3 4.41534 1.67236 3.41188 2.41499 2.56974C3.16903 1.71465 4.13019 1.27778 5.265 1.27778C5.81407 1.27778 6.33547 1.38842 6.82341 1.61217C7.3029 1.83204 7.72371 2.13729 8.08293 2.52539L8.68233 3.16125C8.72534 3.20287 8.77582 3.23683 8.83737 3.26327C8.90058 3.29043 8.95367 3.3 9 3.3H9.00247C9.04701 3.30023 9.09856 3.29111 9.16072 3.26409C9.219 3.23877 9.25092 3.21171 9.27036 3.18868L9.27923 3.17816L9.28867 3.16814L9.89441 2.52557C10.2574 2.13278 10.6877 1.83233 11.1814 1.62717C11.6702 1.42406 12.1817 1.32226 12.7122 1.32222L10.2239 5.11806ZM10.2239 5.11806L10.2281 5.12418M10.2239 5.11806L10.2281 5.12418M10.2281 5.12418L11.7581 7.39085L11.9068 7.61111M10.2281 5.12418L11.9068 7.61111M11.9068 7.61111H12.1725M11.9068 7.61111H12.1725M12.1725 7.61111H15.9075H16.2408M12.1725 7.61111H16.2408M16.2408 7.61111L16.369 7.30351M16.2408 7.61111L16.369 7.30351M16.369 7.30351C16.4862 7.02233 16.5746 6.73524 16.6335 6.44258C16.6922 6.15078 16.7218 5.85532 16.7225 5.55668L16.7225 5.54878M16.369 7.30351L16.7225 5.54878M16.7225 5.54878L16.7223 5.54089M16.7225 5.54878L16.7223 5.54089M16.7223 5.54089C16.6889 4.40497 16.3015 3.41247 15.5592 2.58737M16.7223 5.54089L15.5592 2.58737M9.005 14.7222C9.07541 14.7218 9.15596 14.7125 9.23925 14.6844C9.36813 14.6408 9.45893 14.5606 9.50886 14.5113L9.5096 14.5105L14.8196 9.24389L15.6816 8.38889H14.4675H11.7C11.6364 8.38889 11.5764 8.37417 11.513 8.33943C11.4419 8.30038 11.3863 8.25319 11.3416 8.19724L10.5869 7.05732L10.023 6.20544L9.69626 7.17344L8.48125 10.7734C8.4575 10.8438 8.41328 10.9088 8.3258 10.9717C8.24203 11.0319 8.16327 11.0556 8.0775 11.0556C8.01388 11.0556 7.95385 11.0408 7.89052 11.0061C7.82224 10.9686 7.78296 10.9284 7.75751 10.8882L7.75356 10.8819L7.74943 10.8758L6.21943 8.60915L6.07075 8.38889H5.805H3.51H2.29221L3.15865 9.24463L8.49115 14.5113C8.54033 14.5599 8.63174 14.6414 8.76165 14.6852C8.84788 14.7144 8.93145 14.7232 9.005 14.7222ZM9.005 14.7222C9.00333 14.7222 9.00166 14.7222 9 14.7222V14.2222L9.01007 14.7221C9.00839 14.7222 9.00669 14.7222 9.005 14.7222ZM14.4675 8.88889V9.38889H13.9634L14.4675 8.88889ZM14.4675 8.88889L14.1154 8.53389L13.7575 8.88889H14.4675ZM10.17 7.33333L10.5195 7.86129L10.6437 7.49322L10.17 7.33333ZM10.17 7.33333L9.75308 7.60934L9.96753 7.93326L10.17 7.33333ZM15.5592 2.58737C14.804 1.74795 13.8437 1.32162 12.7125 1.32222L15.5592 2.58737ZM1.88201 9.08935L1.88135 9.0887C1.40623 8.61944 1.06091 8.0882 0.839473 7.49246C0.612874 6.88283 0.49945 6.24576 0.500002 5.57819V5.57778C0.500002 4.17336 0.958004 2.98378 1.87607 1.98232C2.78544 0.990336 3.90378 0.5 5.265 0.5C5.91782 0.5 6.52773 0.627171 7.09982 0.879655C7.67891 1.13523 8.1926 1.49119 8.64317 1.95024L9.00531 2.3192L9.36197 1.94493C9.79644 1.489 10.3009 1.1346 10.8786 0.879655C11.4507 0.627147 12.0603 0.5 12.7125 0.5C14.0738 0.5 15.1968 0.990472 16.1144 1.98373C17.0407 2.98633 17.5005 4.16834 17.5 5.55536V5.55555C17.5 6.22148 17.3833 6.85716 17.1505 7.46581C16.9209 8.06598 16.5772 8.59958 16.1157 9.06942L10.0661 15.0665C10.0661 15.0666 10.066 15.0666 10.0659 15.0667C9.91531 15.2154 9.75311 15.3218 9.57832 15.3922C9.4006 15.4637 9.20962 15.5005 9.0011 15.5H9C8.79116 15.5 8.59392 15.4629 8.40489 15.3892C8.2224 15.3181 8.05871 15.212 7.91148 15.0666C7.91144 15.0666 7.91139 15.0665 7.91135 15.0665L1.88201 9.08935Z" fill="#89A5D6" stroke="#89A5D6"/>
</svg>
