<svg width="369" height="59" viewBox="0 0 369 59" fill="none" xmlns="http://www.w3.org/2000/svg">
<path d="M39.7656 0.890625H51.9922L32.5781 58H19.375L0 0.890625H12.2266L22.9688 34.875C23.5677 36.8802 24.1797 39.224 24.8047 41.9062C25.4557 44.5625 25.8594 46.4115 26.0156 47.4531C26.3021 45.0573 27.2786 40.8646 28.9453 34.875L39.7656 0.890625ZM92.1094 58H59.2188V0.890625H92.1094V10.8125H71.3281V23.3516H90.6641V33.2734H71.3281V48H92.1094V58ZM154.727 58H139.336L114.492 14.7969H114.141C114.635 22.4271 114.883 27.8698 114.883 31.125V58H104.062V0.890625H119.336L144.141 43.6641H144.414C144.023 36.2422 143.828 30.9948 143.828 27.9219V0.890625H154.727V58ZM216.523 28.8984C216.523 38.2995 213.841 45.5 208.477 50.5C203.138 55.5 195.417 58 185.312 58H169.141V0.890625H187.07C196.393 0.890625 203.633 3.35156 208.789 8.27344C213.945 13.1953 216.523 20.0703 216.523 28.8984ZM203.945 29.2109C203.945 16.9453 198.529 10.8125 187.695 10.8125H181.25V48H186.445C198.112 48 203.945 41.737 203.945 29.2109ZM246.133 24.4062L258.047 0.890625H271.094L252.148 35.7734V58H240.117V36.1641L221.172 0.890625H234.297L246.133 24.4062ZM311.992 42.1406C311.992 47.2969 310.13 51.3594 306.406 54.3281C302.708 57.2969 297.552 58.7812 290.938 58.7812C284.844 58.7812 279.453 57.6354 274.766 55.3438V44.0938C278.62 45.8125 281.875 47.0234 284.531 47.7266C287.214 48.4297 289.661 48.7812 291.875 48.7812C294.531 48.7812 296.562 48.2734 297.969 47.2578C299.401 46.2422 300.117 44.7318 300.117 42.7266C300.117 41.6068 299.805 40.6172 299.18 39.7578C298.555 38.8724 297.63 38.026 296.406 37.2188C295.208 36.4115 292.747 35.1224 289.023 33.3516C285.534 31.7109 282.917 30.1354 281.172 28.625C279.427 27.1146 278.034 25.3568 276.992 23.3516C275.951 21.3464 275.43 19.0026 275.43 16.3203C275.43 11.2682 277.135 7.29688 280.547 4.40625C283.984 1.51562 288.724 0.0703125 294.766 0.0703125C297.734 0.0703125 300.56 0.421875 303.242 1.125C305.951 1.82812 308.776 2.81771 311.719 4.09375L307.812 13.5078C304.766 12.2578 302.24 11.3854 300.234 10.8906C298.255 10.3958 296.302 10.1484 294.375 10.1484C292.083 10.1484 290.326 10.6823 289.102 11.75C287.878 12.8177 287.266 14.2109 287.266 15.9297C287.266 16.9974 287.513 17.9349 288.008 18.7422C288.503 19.5234 289.284 20.2917 290.352 21.0469C291.445 21.776 294.01 23.1042 298.047 25.0312C303.385 27.5833 307.044 30.1484 309.023 32.7266C311.003 35.2786 311.992 38.4167 311.992 42.1406Z" fill="#2166AD"/>
<path d="M366.445 13.6641C366.445 17.2318 365.365 20.2656 363.203 22.7656C361.042 25.2656 358.008 26.9844 354.102 27.9219V28.1562C358.711 28.7292 362.201 30.1354 364.57 32.375C366.94 34.5885 368.125 37.5833 368.125 41.3594C368.125 46.8542 366.133 51.138 362.148 54.2109C358.164 57.2578 352.474 58.7812 345.078 58.7812C338.88 58.7812 333.385 57.7526 328.594 55.6953V45.4219C330.807 46.5417 333.242 47.4531 335.898 48.1562C338.555 48.8594 341.185 49.2109 343.789 49.2109C347.773 49.2109 350.716 48.5339 352.617 47.1797C354.518 45.8255 355.469 43.651 355.469 40.6562C355.469 37.974 354.375 36.0729 352.188 34.9531C350 33.8333 346.51 33.2734 341.719 33.2734H337.383V24.0156H341.797C346.224 24.0156 349.453 23.4427 351.484 22.2969C353.542 21.125 354.57 19.1328 354.57 16.3203C354.57 11.9974 351.862 9.83594 346.445 9.83594C344.57 9.83594 342.656 10.1484 340.703 10.7734C338.776 11.3984 336.628 12.4792 334.258 14.0156L328.672 5.69531C333.88 1.94531 340.091 0.0703125 347.305 0.0703125C353.216 0.0703125 357.878 1.26823 361.289 3.66406C364.727 6.0599 366.445 9.39323 366.445 13.6641Z" fill="#D6125D"/>
</svg>
